<?xml version="1.0" standalone="no"?>
<!DOCTYPE svg PUBLIC "-//W3C//DTD SVG 20010904//EN"
 "http://www.w3.org/TR/2001/REC-SVG-20010904/DTD/svg10.dtd">
<svg version="1.0" xmlns="http://www.w3.org/2000/svg"
 width="500.000000pt" height="500.000000pt" viewBox="80 115 330 265"
 preserveAspectRatio="xMidYMid meet">

<style>
  .logo { fill: #1B2D6E; }
  @media (prefers-color-scheme: dark) { .logo { fill: #ffffff; } }
</style>

<g transform="translate(0.000000,500.000000) scale(0.100000,-0.100000)"
class="logo" stroke="none">
<path d="M2220 3729 c13 -43 34 -73 74 -105 l34 -27 -22 -36 c-22 -36 -75
-156 -97 -222 l-12 -35 -112 4 c-97 4 -122 1 -185 -19 -167 -52 -292 -176
-351 -349 -28 -82 -31 -228 -6 -309 57 -183 188 -317 366 -371 70 -22 196 -26
271 -9 89 20 189 78 260 148 l67 67 23 -33 c49 -71 172 -149 281 -178 68 -19
199 -19 266 -1 120 32 247 124 313 226 17 27 43 82 57 122 34 97 35 241 4 339
-38 119 -134 239 -241 301 -125 73 -294 90 -431 43 -40 -13 -75 -22 -78 -20
-10 10 -5 94 7 116 37 70 155 98 207 49 30 -28 36 -24 42 34 10 89 -26 146
-107 167 -28 7 -50 16 -50 20 0 17 -55 71 -91 89 -35 18 -60 20 -268 20 l-230
0 9 -31z m463 -33 c36 -15 74 -53 64 -63 -4 -3 -36 -1 -71 5 -84 16 -129 16
-124 0 3 -7 15 -14 27 -16 12 -2 26 -14 31 -27 12 -33 55 -43 90 -21 55 32
175 13 199 -32 23 -42 15 -49 -39 -38 -158 32 -357 -97 -425 -276 -10 -27 -19
-48 -21 -48 -2 0 -25 15 -51 33 -27 19 -65 41 -85 51 l-37 17 20 52 c57 144
85 203 115 243 19 24 34 46 34 48 0 2 -12 7 -27 11 -32 7 -93 51 -93 66 0 15
355 12 393 -5z m-21 -298 c-17 -22 -24 -83 -13 -123 l10 -38 -68 -66 c-75 -74
-111 -129 -141 -216 -25 -74 -25 -77 6 -73 21 2 29 12 43 53 30 84 56 128 112
183 144 145 350 183 532 99 192 -89 312 -310 277 -511 -32 -190 -164 -343
-343 -398 -82 -24 -212 -22 -292 7 -54 19 -147 79 -183 118 l-23 25 22 48 c12
27 27 63 33 81 l11 32 45 -56 c27 -33 67 -69 99 -87 49 -27 64 -30 140 -31 47
0 101 4 119 8 30 8 32 7 32 -16 0 -33 -40 -47 -137 -47 -57 0 -90 6 -140 26
-66 26 -93 23 -80 -9 9 -25 116 -59 199 -65 168 -10 328 82 406 233 29 58 32
89 7 93 -16 2 -25 -10 -44 -53 -26 -62 -83 -131 -130 -158 l-31 -18 0 25 c0
17 16 41 48 73 29 29 57 70 71 106 21 51 26 57 53 57 18 0 39 10 55 26 20 20
24 31 19 57 -9 43 -29 61 -71 61 -19 0 -35 5 -35 11 0 24 -51 116 -86 155 -58
63 -123 93 -221 98 -102 6 -166 -15 -234 -76 -81 -73 -119 -156 -119 -264 0
-31 -5 -81 -11 -110 -12 -59 -48 -148 -58 -148 -4 0 -14 14 -22 30 l-14 31
-42 -64 c-205 -311 -672 -281 -835 54 -71 145 -70 282 3 435 121 255 443 342
684 186 33 -21 74 -55 92 -75 38 -44 43 -45 43 -12 0 33 42 143 73 191 26 40
74 89 116 117 27 18 40 15 23 -5z m369 -350 c135 -46 218 -190 189 -327 -19
-88 -72 -159 -150 -199 -59 -31 -71 -33 -135 -30 -83 5 -134 27 -189 83 -57
59 -80 116 -81 200 0 159 117 282 271 284 34 1 76 -4 95 -11z m299 -272 c0
-28 -28 -42 -47 -23 -19 19 -5 47 23 47 19 0 24 -5 24 -24z"/>
<path d="M1922 3190 c-100 -34 -201 -119 -247 -209 -47 -92 -59 -234 -29 -337
21 -74 84 -164 147 -212 105 -80 127 -82 127 -13 l0 49 38 -14 c52 -18 158
-17 214 4 68 25 129 72 166 127 51 77 47 85 -46 85 -66 0 -82 3 -97 20 -26 28
-50 33 -83 16 -49 -25 -56 -73 -17 -111 31 -32 67 -32 96 0 17 18 35 25 62 25
20 0 37 -4 37 -8 0 -20 -81 -84 -128 -102 -142 -54 -296 10 -360 149 -68 147
4 322 157 387 89 37 252 1 259 -58 3 -28 44 -68 68 -68 28 0 63 24 72 50 21
59 -30 112 -92 96 -14 -3 -40 3 -67 17 -37 18 -60 22 -144 22 -85 0 -107 -4
-143 -23 -68 -36 -120 -90 -152 -157 -26 -55 -30 -74 -30 -149 0 -106 25 -170
93 -238 33 -32 47 -55 47 -73 l0 -27 -27 17 c-78 50 -138 145 -163 257 -25
111 29 270 118 349 53 47 128 86 185 95 31 5 37 11 37 30 0 29 -22 30 -98 4z
m386 -169 c21 -13 10 -46 -16 -49 -27 -4 -40 22 -22 43 14 17 20 18 38 6z
m-138 -375 c0 -25 -15 -36 -37 -29 -7 3 -13 16 -13 29 0 19 5 24 25 24 20 0
25 -5 25 -24z"/>
<path d="M2920 3190 c0 -19 1 -19 105 -36 97 -15 219 -114 268 -217 27 -59 49
-70 55 -30 5 31 -43 119 -94 173 -71 76 -189 130 -286 130 -41 0 -48 -3 -48
-20z"/>
<path d="M2013 2868 c-44 -21 -49 -94 -10 -127 25 -20 75 -16 100 7 22 21 33
22 185 22 123 0 162 -3 162 -12 -2 -75 -56 -193 -119 -257 -59 -60 -165 -111
-228 -111 -20 0 -24 -4 -21 -22 3 -20 8 -23 47 -20 68 4 179 61 240 122 80 80
131 205 131 323 l0 27 -181 0 -181 0 -35 30 c-36 32 -54 35 -90 18z m65 -64
c3 -23 -18 -37 -43 -28 -16 6 -20 35 -8 48 14 14 48 1 51 -20z"/>
<path d="M2116 1997 c-22 -16 -25 -65 -5 -78 20 -13 63 -11 77 3 7 7 12 25 12
40 0 21 -6 31 -26 38 -33 13 -37 13 -58 -3z"/>
<path d="M2300 1735 l0 -255 45 0 45 0 0 255 0 255 -45 0 -45 0 0 -255z"/>
<path d="M2780 1900 c0 -49 -1 -90 -3 -90 -1 0 -20 9 -42 20 -50 26 -108 25
-162 -1 -52 -25 -79 -61 -94 -125 -35 -154 120 -283 256 -214 47 24 45 24 45
5 0 -11 11 -15 40 -15 l40 0 0 255 0 255 -40 0 -40 0 0 -90z m-65 -134 c58
-25 82 -104 50 -166 -20 -38 -43 -50 -97 -50 -73 0 -115 56 -103 136 8 55 44
87 103 93 7 0 28 -5 47 -13z"/>
<path d="M1260 1961 c-139 -45 -207 -174 -166 -315 44 -151 230 -221 383 -145
l48 24 3 103 3 102 -41 0 -40 0 0 -74 c0 -89 -8 -98 -90 -104 -51 -4 -66 0
-106 23 -136 80 -93 304 61 315 65 5 94 -1 130 -26 l38 -25 25 24 c31 32 26
46 -29 76 -47 26 -170 38 -219 22z"/>
<path d="M3110 1955 c-56 -25 -98 -63 -127 -113 -23 -39 -27 -58 -27 -117 1
-112 40 -177 134 -227 62 -32 185 -32 246 0 149 77 181 285 63 400 -53 52 -86
65 -174 69 -57 2 -90 -1 -115 -12z m191 -87 c109 -61 102 -245 -11 -303 -16
-8 -50 -15 -76 -15 -95 0 -173 76 -174 170 0 49 38 120 79 147 46 31 128 31
182 1z"/>
<path d="M3635 1956 c-72 -27 -108 -101 -85 -171 17 -53 51 -72 192 -111 87
-23 111 -61 68 -104 -30 -30 -136 -28 -201 5 l-49 24 -16 -31 c-16 -31 -16
-32 6 -50 37 -30 127 -51 194 -45 116 9 171 55 171 143 0 80 -32 107 -170 143
-109 29 -136 57 -100 108 28 40 96 40 219 1 5 -2 15 12 23 29 13 32 12 33 -19
49 -45 23 -181 29 -233 10z"/>
<path d="M1641 1842 c-15 -5 -15 -198 0 -258 26 -103 160 -149 243 -83 l26 20
0 -20 c0 -18 6 -21 40 -21 l40 0 -2 181 -3 182 -37 2 -38 3 0 -110 c0 -115
-12 -158 -49 -178 -31 -16 -87 -12 -112 9 -23 18 -24 27 -27 145 -2 69 -7 127
-10 127 -19 4 -61 4 -71 1z"/>
<path d="M2122 1842 c-9 -3 -12 -56 -12 -183 l0 -179 40 0 40 0 0 179 0 179
-28 4 c-16 2 -34 2 -40 0z"/>
<path d="M1116 1337 c-21 -16 -24 -60 -6 -82 8 -10 25 -15 43 -13 43 4 47 26
5 25 -30 -2 -33 0 -33 28 0 28 3 30 33 28 21 -1 32 3 29 10 -5 18 -49 20 -71
4z"/>
<path d="M1227 1332 c-46 -50 13 -114 74 -82 13 7 19 21 19 45 0 52 -59 75
-93 37z m61 -11 c8 -4 12 -19 10 -32 -4 -30 -51 -35 -56 -6 -8 39 15 58 46 38z"/>
<path d="M1350 1295 c0 -30 5 -55 10 -55 6 0 10 12 10 28 l1 27 18 -23 19 -22
21 27 20 28 1 -32 c0 -18 5 -33 10 -33 6 0 10 25 10 55 0 62 -11 69 -37 25 -9
-16 -20 -30 -23 -30 -3 0 -14 14 -23 30 -26 44 -37 37 -37 -25z"/>
<path d="M1500 1295 c0 -30 5 -55 10 -55 6 0 10 15 10 33 l1 32 21 -28 21 -28
18 28 19 28 0 -32 c0 -18 5 -33 10 -33 6 0 10 25 10 55 0 30 -4 55 -10 55 -5
0 -18 -16 -28 -36 l-19 -37 -22 37 c-13 20 -27 36 -32 36 -5 0 -9 -25 -9 -55z"/>
<path d="M1650 1311 c0 -23 7 -46 16 -55 21 -22 61 -20 74 3 13 25 13 91 0 91
-5 0 -10 -15 -10 -32 0 -73 -52 -77 -58 -4 -4 48 -22 46 -22 -3z"/>
<path d="M1780 1295 c0 -30 5 -55 10 -55 6 0 10 15 10 33 l1 32 30 -33 c32
-35 51 -35 45 1 -3 12 -5 34 -5 50 -1 38 -21 34 -21 -5 l-1 -33 -28 33 c-15
17 -31 32 -34 32 -4 0 -7 -25 -7 -55z"/>
<path d="M1910 1295 c0 -30 5 -55 10 -55 6 0 10 25 10 55 0 30 -4 55 -10 55
-5 0 -10 -25 -10 -55z"/>
<path d="M1950 1340 c0 -5 6 -10 14 -10 10 0 16 -14 18 -42 2 -24 8 -43 13
-43 6 0 11 19 13 43 2 28 8 42 18 42 8 0 14 5 14 10 0 6 -20 10 -45 10 -25 0
-45 -4 -45 -10z"/>
<path d="M2070 1310 c11 -21 20 -46 20 -55 0 -8 5 -15 10 -15 6 0 10 7 10 15
0 9 9 34 20 55 22 43 13 55 -13 18 l-16 -23 -16 23 c-27 36 -37 25 -15 -18z"/>
<path d="M2223 1324 c-15 -24 -15 -29 -2 -53 19 -34 61 -39 88 -12 26 26 26
46 1 71 -28 28 -66 26 -87 -6z m72 -29 c0 -35 -31 -47 -51 -20 -18 25 0 57 29
53 17 -2 22 -10 22 -33z"/>
<path d="M2350 1295 c0 -30 5 -55 10 -55 6 0 10 6 10 13 0 7 15 17 32 22 60
18 41 75 -24 75 -27 0 -28 -1 -28 -55z m65 15 c0 -22 -39 -19 -43 3 -3 15 1
18 20 15 12 -2 23 -10 23 -18z"/>
<path d="M2470 1295 l0 -55 40 0 c22 0 40 5 40 10 0 6 -14 10 -31 10 -36 0
-35 21 2 31 24 7 24 7 -3 8 -36 1 -39 31 -3 31 14 0 25 5 25 10 0 6 -16 10
-35 10 l-35 0 0 -55z"/>
<path d="M2570 1295 c0 -30 5 -55 10 -55 6 0 10 7 10 15 0 8 9 15 19 15 10 0
21 -7 25 -15 10 -28 21 -15 23 28 1 52 -10 67 -53 67 l-34 0 0 -55z m65 15 c0
-22 -39 -19 -43 3 -3 15 1 18 20 15 12 -2 23 -10 23 -18z"/>
<path d="M2702 1298 c-22 -52 -22 -72 0 -50 7 7 21 12 33 12 12 0 26 -5 33
-12 22 -22 23 0 1 51 -13 28 -28 51 -34 51 -6 0 -21 -23 -33 -52z m48 -10 c0
-5 -7 -8 -15 -8 -15 0 -20 21 -8 33 7 7 23 -11 23 -25z"/>
<path d="M2800 1340 c0 -5 7 -10 15 -10 11 0 15 -12 15 -45 0 -25 5 -45 10
-45 6 0 10 20 10 45 0 38 3 45 20 45 11 0 20 5 20 10 0 6 -20 10 -45 10 -25 0
-45 -4 -45 -10z"/>
<path d="M2910 1295 c0 -30 5 -55 10 -55 6 0 10 25 10 55 0 30 -4 55 -10 55
-5 0 -10 -25 -10 -55z"/>
<path d="M2960 1295 c0 -30 5 -55 10 -55 6 0 10 14 10 30 0 17 3 30 6 30 3 0
17 -13 31 -30 13 -16 29 -30 34 -30 5 0 9 25 9 55 0 30 -4 55 -10 55 -5 0 -10
-14 -10 -32 l0 -32 -33 32 c-18 18 -36 32 -40 32 -4 0 -7 -25 -7 -55z"/>
<path d="M3106 1337 c-42 -31 -11 -101 43 -95 26 3 48 43 30 54 -6 3 -13 -4
-16 -16 -4 -14 -12 -20 -27 -18 -16 2 -21 10 -21 33 0 28 3 30 33 28 21 -1 32
3 29 10 -5 18 -49 20 -71 4z"/>
<path d="M3265 1333 c-16 -16 -16 -18 5 -35 12 -10 29 -18 37 -18 8 0 11 -5 7
-11 -3 -6 -17 -9 -30 -6 -34 6 -41 -11 -8 -19 56 -14 88 39 35 57 -37 13 -41
29 -6 29 14 0 25 5 25 10 0 16 -47 11 -65 -7z"/>
<path d="M3369 1314 c12 -19 21 -44 21 -55 0 -10 5 -19 10 -19 6 0 10 8 10 18
0 9 9 32 20 50 23 37 24 42 10 42 -5 0 -15 -12 -23 -26 l-14 -26 -16 26 c-26
40 -42 31 -18 -10z"/>
<path d="M3477 1343 c-15 -15 -5 -44 18 -55 14 -6 25 -16 25 -21 0 -5 -11 -7
-25 -5 -17 4 -25 1 -25 -8 0 -18 54 -18 69 0 15 18 4 44 -22 48 -31 5 -34 28
-2 28 15 0 24 4 20 10 -7 11 -48 14 -58 3z"/>
<path d="M3560 1340 c0 -5 6 -10 14 -10 10 0 16 -13 18 -42 4 -59 28 -63 28
-4 0 34 4 46 15 46 8 0 15 5 15 10 0 6 -20 10 -45 10 -25 0 -45 -4 -45 -10z"/>
<path d="M3670 1295 l0 -55 40 0 c22 0 40 5 40 10 0 6 -11 10 -25 10 -32 0
-34 27 -2 33 l22 4 -22 2 c-32 2 -30 31 2 31 14 0 25 5 25 10 0 6 -18 10 -40
10 l-40 0 0 -55z"/>
<path d="M3780 1295 c0 -30 5 -55 10 -55 6 0 10 15 10 33 l0 32 20 -25 20 -25
20 25 20 25 0 -32 c0 -18 5 -33 10 -33 6 0 10 25 10 55 0 61 -12 70 -35 25 -9
-16 -20 -30 -25 -30 -5 0 -16 14 -25 30 -23 45 -35 36 -35 -25z"/>
</g>
</svg>
